<?xml version="1.0" encoding="UTF-8" standalone="no"?>
<svg
   xmlns:dc="http://purl.org/dc/elements/1.1/"
   xmlns:cc="http://creativecommons.org/ns#"
   xmlns:rdf="http://www.w3.org/1999/02/22-rdf-syntax-ns#"
   xmlns:svg="http://www.w3.org/2000/svg"
   xmlns="http://www.w3.org/2000/svg"
   xmlns:sodipodi="http://sodipodi.sourceforge.net/DTD/sodipodi-0.dtd"
   xmlns:inkscape="http://www.inkscape.org/namespaces/inkscape"
   version="1.1"
   id="Layer_1"
   x="0px"
   y="0px"
   viewBox="5 -10 68.597817 78.301201"
   enable-background="new 0 0 100 100"
   xml:space="preserve"
   height="58.000889"
   width="68.597816"
   inkscape:version="0.48.4 r9939"
   sodipodi:docname="hand.svg"
   inkscape:export-filename="/data/mapologo/projects/tinjaca/doc/informe1/static/hand.png"
   inkscape:export-xdpi="65.599747"
   inkscape:export-ydpi="65.599747"><metadata
     id="metadata13"><rdf:RDF><cc:Work
         rdf:about=""><dc:format>image/svg+xml</dc:format><dc:type
           rdf:resource="http://purl.org/dc/dcmitype/StillImage" /><dc:title></dc:title></cc:Work></rdf:RDF></metadata><defs
     id="defs11" /><sodipodi:namedview
     pagecolor="#ffffff"
     bordercolor="#666666"
     borderopacity="1"
     objecttolerance="10"
     gridtolerance="10"
     guidetolerance="10"
     inkscape:pageopacity="0"
     inkscape:pageshadow="2"
     inkscape:window-width="924"
     inkscape:window-height="480"
     id="namedview9"
     showgrid="false"
     fit-margin-top="0"
     fit-margin-left="0"
     fit-margin-right="0"
     fit-margin-bottom="0"
     inkscape:zoom="2.36"
     inkscape:cx="7.3687153"
     inkscape:cy="28.958614"
     inkscape:window-x="0"
     inkscape:window-y="0"
     inkscape:window-maximized="0"
     inkscape:current-layer="Layer_1" /><path
     style="fill:#000000;stroke-width:0.13500001;stroke-miterlimit:4;stroke-dasharray:none"
     d="M 87.41565,19.502935 C 86.903993,12.41645 78.987319,9.3454506 72.7594,10.721685 c -10.604167,0 -21.208333,0 -31.8125,0 7.220509,0.107013 13.896806,-7.0057284 11.125,-14.1562512 -1.96888,-5.9891975 -9.131498,-7.7218668 -14.625,-5.84375 C 21.826936,-6.3807799 6.294659,1.2364233 -3.4281002,13.940435 -4.7360162,18.128173 1.850626,19.984131 3.41565,15.846685 13.780867,4.7578796 28.782382,-2.188788 43.6969,-3.1533162 c 3.910444,1.2524231 2.271341,7.3828338 -1.75,6.8437498 -7.093309,1.966632 -16.207627,3.359313 -20.65625,9.5625014 -1.08143,6.093949 7.202729,4.096465 11.0625,4.28125 15.587107,0.299701 31.422484,-0.56735 46.875,0.375 3.641435,2.129917 0.02993,7.274196 -3.59375,5.625 -12.67063,0.282346 -25.517294,-0.530713 -38.09375,0.34375 -4.002176,2.151508 -0.474137,7.785482 3.5,6.15625 12.687643,0.313851 25.635797,-0.586815 38.1875,0.375 3.641435,2.129917 0.02993,7.274196 -3.59375,5.625 -12.725741,0.389274 -25.738731,-0.729727 -38.3125,0.46875 -3.701407,2.334715 -0.121777,7.678351 3.71875,6.125 11.795003,0.251899 23.770833,-0.47587 35.46875,0.3125 3.741358,1.97708 0.281083,7.40093 -3.5,5.6875 -11.846024,0.415007 -24.010589,-0.778338 -35.6875,0.5 -3.694526,2.27483 -0.127327,7.744832 3.71875,6.09375 10.100304,0.452822 20.520249,-0.817939 30.46875,0.46875 3.298173,2.34656 -0.138653,7.078719 -3.65625,5.53125 -16.461814,-0.544928 -33.200871,1.067822 -49.5,-0.75 C 10.622962,59.125196 4.47755,53.946463 -0.92809995,48.752935 -5.3644022,47.344059 -6.7124752,53.99861 -2.9906,55.784185 c 9.364323,10.410053 23.954126,13.517213 37.4375,12.25 12.744967,-0.436225 25.702319,0.796565 38.34375,-0.46875 5.43215,-1.464261 7.913365,-8.207614 6.0625,-12.96875 5.606243,-1.91417 7.347562,-9.31945 4.8125,-13.90625 4.766978,-3.231985 4.485659,-10.288554 1.59375,-14.21875 1.587099,-1.931349 2.394998,-4.462678 2.15625,-6.96875 z"
     id="path3"
     inkscape:connector-curvature="0" /></svg>