<?xml version="1.0" encoding="UTF-8" standalone="no"?>
<svg
   xmlns:dc="http://purl.org/dc/elements/1.1/"
   xmlns:cc="http://creativecommons.org/ns#"
   xmlns:rdf="http://www.w3.org/1999/02/22-rdf-syntax-ns#"
   xmlns:svg="http://www.w3.org/2000/svg"
   xmlns="http://www.w3.org/2000/svg"
   xmlns:sodipodi="http://sodipodi.sourceforge.net/DTD/sodipodi-0.dtd"
   xmlns:inkscape="http://www.inkscape.org/namespaces/inkscape"
   version="1.1"
   id="Capa_1"
   x="0px"
   y="0px"
   width="54.979744"
   height="54.976364"
   viewBox="5 -10 54.979744 74.218092"
   enable-background="new 0 0 100 100"
   xml:space="preserve"
   inkscape:version="0.48.4 r9939"
   sodipodi:docname="asterisk.svg"
   inkscape:export-filename="/data/mapologo/projects/tinjaca/doc/informe1/static/asterisk.png"
   inkscape:export-xdpi="72"
   inkscape:export-ydpi="72"><metadata
     id="metadata13"><rdf:RDF><cc:Work
         rdf:about=""><dc:format>image/svg+xml</dc:format><dc:type
           rdf:resource="http://purl.org/dc/dcmitype/StillImage" /><dc:title></dc:title></cc:Work></rdf:RDF></metadata><defs
     id="defs11" /><sodipodi:namedview
     pagecolor="#ffffff"
     bordercolor="#666666"
     borderopacity="1"
     objecttolerance="10"
     gridtolerance="10"
     guidetolerance="10"
     inkscape:pageopacity="0"
     inkscape:pageshadow="2"
     inkscape:window-width="1366"
     inkscape:window-height="744"
     id="namedview9"
     showgrid="false"
     fit-margin-top="0"
     fit-margin-left="0"
     fit-margin-right="0"
     fit-margin-bottom="0"
     inkscape:zoom="6.675088"
     inkscape:cx="9.5331727"
     inkscape:cy="29.905661"
     inkscape:window-x="0"
     inkscape:window-y="0"
     inkscape:window-maximized="1"
     inkscape:current-layer="Capa_1"
     showguides="true"
     inkscape:guide-bbox="true" /><g
     transform="matrix(2.6731711,0,0,2.8023098,94.434953,59.095014)"
     style="font-size:64px;font-style:normal;font-variant:normal;font-weight:bold;font-stretch:normal;text-align:start;line-height:125%;letter-spacing:0px;word-spacing:0px;writing-mode:lr-tb;text-anchor:start;fill:#000000;fill-opacity:1;stroke:none;font-family:Nimbus Mono L;-inkscape-font-specification:Nimbus Mono L Bold"
     id="text3009"><path
       d="m -28.356883,-8.6621441 -3.328,4.544 c -0.959999,1.4079986 -1.216,1.9200008 -1.216,2.752 0,1.72799828 1.472002,3.2 3.2,3.2 1.279999,0 1.920001,-0.3840018 3.2,-2.176 l 3.328,-4.608 3.328,4.608 c 1.343999,1.7919982 1.856002,2.176 3.2,2.176 1.727998,0 3.2,-1.47200172 3.2,-3.2 0,-0.8319992 -0.256001,-1.4080013 -1.216,-2.752 l -3.328,-4.544 5.504,-1.7919999 c 2.303998,-0.703999 3.2000002,-1.664002 3.2000002,-3.328 0,-1.663998 -1.4720012,-3.2 -3.0720002,-3.2 -0.575999,0 -0.768001,0.064 -2.112,0.448 l -5.504,1.792 0,-5.696 c 0,-1.535999 -0.128,-2.112001 -0.448,-2.688 -0.575999,-0.959999 -1.664001,-1.536 -2.752,-1.536 -1.023999,0 -1.984,0.512001 -2.624,1.344 -0.447999,0.575999 -0.576,1.280002 -0.576,2.88 l 0,5.696 -5.504,-1.792 c -1.343998,-0.384 -1.536,-0.448 -2.176,-0.448 -1.599998,0 -3.008,1.472002 -3.008,3.2 0,1.727998 0.832003,2.624001 3.2,3.328 l 5.504,1.7919999"
       style="line-height:125%;font-family:Nimbus Mono L;-inkscape-font-specification:Nimbus Mono L Bold"
       id="path3017"
       inkscape:connector-curvature="0" /></g></svg>