<?xml version="1.0" encoding="UTF-8" standalone="no"?>
<svg
   xmlns:dc="http://purl.org/dc/elements/1.1/"
   xmlns:cc="http://creativecommons.org/ns#"
   xmlns:rdf="http://www.w3.org/1999/02/22-rdf-syntax-ns#"
   xmlns:svg="http://www.w3.org/2000/svg"
   xmlns="http://www.w3.org/2000/svg"
   xmlns:sodipodi="http://sodipodi.sourceforge.net/DTD/sodipodi-0.dtd"
   xmlns:inkscape="http://www.inkscape.org/namespaces/inkscape"
   version="1.1"
   id="Capa_1"
   x="0px"
   y="0px"
   width="54.979744"
   height="54.976364"
   viewBox="5 -10 54.979744 74.218092"
   enable-background="new 0 0 100 100"
   xml:space="preserve"
   inkscape:version="0.48.4 r9939"
   sodipodi:docname="cross.svg"
   inkscape:export-filename="/data/mapologo/projects/tinjaca/doc/informe1/static/cross.png"
   inkscape:export-xdpi="72"
   inkscape:export-ydpi="72"><metadata
     id="metadata13"><rdf:RDF><cc:Work
         rdf:about=""><dc:format>image/svg+xml</dc:format><dc:type
           rdf:resource="http://purl.org/dc/dcmitype/StillImage" /><dc:title></dc:title></cc:Work></rdf:RDF></metadata><defs
     id="defs11" /><sodipodi:namedview
     pagecolor="#ffffff"
     bordercolor="#666666"
     borderopacity="1"
     objecttolerance="10"
     gridtolerance="10"
     guidetolerance="10"
     inkscape:pageopacity="0"
     inkscape:pageshadow="2"
     inkscape:window-width="1168"
     inkscape:window-height="480"
     id="namedview9"
     showgrid="false"
     fit-margin-top="0"
     fit-margin-left="0"
     fit-margin-right="0"
     fit-margin-bottom="0"
     inkscape:zoom="2.36"
     inkscape:cx="-71.417033"
     inkscape:cy="21.927407"
     inkscape:window-x="0"
     inkscape:window-y="0"
     inkscape:window-maximized="0"
     inkscape:current-layer="Capa_1" /><path
     d="m 4.9418676,-9.8141591 c -8.5778054,0.254478 -12.6352288,12.2609401 -6.375,17.75 C 4.9527189,14.33124 11.335193,20.730014 17.723118,27.123341 c -6.817051,7.630987 -15.4009489,13.930263 -21.3125004,22.25 -4.3050839,8.356321 5.7309555,18.212829 14.0000004,13.71875 8.143452,-6.024011 14.531741,-14.384879 22.0625,-21.21875 7.639806,6.783953 14.035097,15.578901 22.28125,21.3125 8.266585,4.260792 18.187183,-5.618322 13.75,-13.90625 -5.953614,-8.255661 -14.45419,-14.595705 -21.3125,-22.15625 6.880631,-7.553057 15.354801,-13.923494 21.3125,-22.1875001 4.453943,-8.3214199 -5.594074,-18.2767839 -13.875,-13.84375 C 46.422943,-2.8742031 40.0108,5.5118704 32.473118,12.404591 24.914357,5.5435026 18.570774,-2.9527186 10.316868,-8.9079091 8.6432996,-9.6828292 6.7807189,-10.028193 4.9418676,-9.8141591 z"
     id="path3"
     inkscape:connector-curvature="0" /></svg>