<?xml version="1.0" encoding="UTF-8" standalone="no"?>
<svg
   xmlns:dc="http://purl.org/dc/elements/1.1/"
   xmlns:cc="http://creativecommons.org/ns#"
   xmlns:rdf="http://www.w3.org/1999/02/22-rdf-syntax-ns#"
   xmlns:svg="http://www.w3.org/2000/svg"
   xmlns="http://www.w3.org/2000/svg"
   xmlns:sodipodi="http://sodipodi.sourceforge.net/DTD/sodipodi-0.dtd"
   xmlns:inkscape="http://www.inkscape.org/namespaces/inkscape"
   version="1.1"
   id="Layer_1"
   x="0px"
   y="0px"
   width="54.98"
   height="57.204971"
   viewBox="2.5 -5 54.98 77.226711"
   enable-background="new 0 0 50 50"
   xml:space="preserve"
   inkscape:version="0.48.4 r9939"
   sodipodi:docname="database.svg"
   inkscape:export-filename="/data/mapologo/projects/tinjaca/doc/informe1/static/database.png"
   inkscape:export-xdpi="144.05238"
   inkscape:export-ydpi="144.05238"><metadata
     id="metadata13"><rdf:RDF><cc:Work
         rdf:about=""><dc:format>image/svg+xml</dc:format><dc:type
           rdf:resource="http://purl.org/dc/dcmitype/StillImage" /><dc:title></dc:title></cc:Work></rdf:RDF></metadata><defs
     id="defs11" /><sodipodi:namedview
     pagecolor="#ffffff"
     bordercolor="#666666"
     borderopacity="1"
     objecttolerance="10"
     gridtolerance="10"
     guidetolerance="10"
     inkscape:pageopacity="0"
     inkscape:pageshadow="2"
     inkscape:window-width="1089"
     inkscape:window-height="480"
     id="namedview9"
     showgrid="false"
     fit-margin-top="0"
     fit-margin-left="0"
     fit-margin-right="0"
     fit-margin-bottom="0"
     inkscape:zoom="4.72"
     inkscape:cx="-13.889673"
     inkscape:cy="29.280636"
     inkscape:window-x="0"
     inkscape:window-y="0"
     inkscape:window-maximized="0"
     inkscape:current-layer="Layer_1" /><path
     d="M 67.013357,7.4532265 C 66.083252,-0.7182615 47.951965,-5.0000005 29.99,-5.0000005 c -17.964286,0 -36.0955724,4.284059 -37.0256795,12.453227 -0.030153,0.146127 -0.08582,0.285295 -0.08582,0.43838 V 58.919916 c 0,0.02319 0.011597,0.04175 0.013917,0.05799 -0.00464,0.04871 -0.013917,0.111334 -0.013917,0.146126 0,8.605229 18.6694025,13.102679 37.1114995,13.102679 18.439774,0 37.111499,-4.49745 37.111499,-13.102679 0,-0.03943 -0.0116,-0.09974 -0.01624,-0.146126 0.0023,-0.01856 0.01624,-0.03943 0.01624,-0.05799 V 7.8916065 c 0,-0.153085 -0.06031,-0.294573 -0.08814,-0.43838 z M 62.462562,33.614513 c 0,3.370188 -12.951916,8.46606 -32.472562,8.46606 -19.52065,0 -32.4725623,-5.095872 -32.4725623,-8.46606 V 14.77579 C 4.1951881,19.013459 17.137823,21.205356 29.99,21.205356 c 12.852174,0 25.792489,-2.191898 32.472562,-6.429566 V 33.614513 z M 29.99,-0.3657025 c 19.520646,0 32.472562,5.093554 32.472562,8.463742 0,3.3701885 -12.951916,8.4660595 -32.472562,8.4660595 -19.52065,0 -32.4725624,-5.095871 -32.4725624,-8.4660595 0,-3.370188 12.9519124,-8.463742 32.4725624,-8.463742 z m 0,67.9627505 c -19.325815,0 -32.2151014,-4.993816 -32.4679235,-8.37792 0.011597,-0.08814 -0.016236,-0.169322 -0.013917,-0.259781 0,-0.0116 0.00928,-0.0232 0.00928,-0.03711 V 40.292265 c 6.6777504,4.237667 19.6203855,6.429565 32.4725625,6.429565 12.852174,0 25.792489,-2.191898 32.472562,-6.429567 v 18.629973 c 0,0.01624 0.0093,0.02783 0.0093,0.04639 0.0023,0.08582 -0.02551,0.167002 -0.01392,0.255141 -0.238906,3.367869 -13.125874,8.373282 -32.467921,8.373282 z"
     id="path3"
     inkscape:connector-curvature="0"
     inkscape:export-filename="/data/mapologo/projects/tinjaca/doc/informe1/static/database.png"
     inkscape:export-xdpi="72"
     inkscape:export-ydpi="72" /></svg>