<?xml version="1.0" encoding="UTF-8" standalone="no"?>
<svg
   xmlns:dc="http://purl.org/dc/elements/1.1/"
   xmlns:cc="http://creativecommons.org/ns#"
   xmlns:rdf="http://www.w3.org/1999/02/22-rdf-syntax-ns#"
   xmlns:svg="http://www.w3.org/2000/svg"
   xmlns="http://www.w3.org/2000/svg"
   xmlns:sodipodi="http://sodipodi.sourceforge.net/DTD/sodipodi-0.dtd"
   xmlns:inkscape="http://www.inkscape.org/namespaces/inkscape"
   version="1.1"
   id="Layer_1"
   x="0px"
   y="0px"
   width="59.259258"
   height="44.444443"
   viewBox="5 -10 59.259258 59.999998"
   enable-background="new 0 0 100 100"
   xml:space="preserve"
   inkscape:version="0.48.4 r9939"
   sodipodi:docname="envelope.svg"
   inkscape:export-filename="/data/mapologo/projects/tinjaca/doc/informe1/static/envelope.png"
   inkscape:export-xdpi="75.9375"
   inkscape:export-ydpi="75.9375"><metadata
     id="metadata13"><rdf:RDF><cc:Work
         rdf:about=""><dc:format>image/svg+xml</dc:format><dc:type
           rdf:resource="http://purl.org/dc/dcmitype/StillImage" /><dc:title></dc:title></cc:Work></rdf:RDF></metadata><defs
     id="defs11" /><sodipodi:namedview
     pagecolor="#ffffff"
     bordercolor="#666666"
     borderopacity="1"
     objecttolerance="10"
     gridtolerance="10"
     guidetolerance="10"
     inkscape:pageopacity="0"
     inkscape:pageshadow="2"
     inkscape:window-width="902"
     inkscape:window-height="480"
     id="namedview9"
     showgrid="false"
     fit-margin-top="0"
     fit-margin-left="0"
     fit-margin-right="0"
     fit-margin-bottom="0"
     inkscape:zoom="2.36"
     inkscape:cx="-18.149718"
     inkscape:cy="16.666667"
     inkscape:window-x="0"
     inkscape:window-y="0"
     inkscape:window-maximized="0"
     inkscape:current-layer="Layer_1" /><path
     d="m 74.629629,-4.877001 -0.029,-0.023 c -0.288,-2.854 -2.715,-5.1 -5.641,-5.1 h -68.661 c -2.926,0 -5.352,2.246 -5.64,5.099 l -0.029,0.024 0.027,0.021 c -0.016,0.173 -0.027,0.348 -0.027,0.525 v 48.662 c 0,3.118 2.551,5.669 5.669,5.669 h 68.661 c 3.119,0 5.67,-2.551 5.67,-5.669 v -48.662 c 0,-0.177 -0.011,-0.352 -0.027,-0.525 l 0.027,-0.021 z m -16.403,2.877 -23.597,18.877 -23.597,-18.877 h 47.194 z m 8.403,44 h -64 v -40.478 l 29.501,23.601 c 0.73,0.585 1.615,0.877 2.499,0.877 0.885,0 1.769,-0.292 2.499,-0.877 l 29.501,-23.601 v 40.478 z"
     id="path3"
     inkscape:connector-curvature="0" /></svg>