<?xml version="1.0" encoding="UTF-8" standalone="no"?>
<svg
   xmlns:dc="http://purl.org/dc/elements/1.1/"
   xmlns:cc="http://creativecommons.org/ns#"
   xmlns:rdf="http://www.w3.org/1999/02/22-rdf-syntax-ns#"
   xmlns:svg="http://www.w3.org/2000/svg"
   xmlns="http://www.w3.org/2000/svg"
   xmlns:sodipodi="http://sodipodi.sourceforge.net/DTD/sodipodi-0.dtd"
   xmlns:inkscape="http://www.inkscape.org/namespaces/inkscape"
   version="1.1"
   id="Layer_1"
   x="0px"
   y="0px"
   width="49.259258"
   height="59.50148"
   viewBox="5 -10 49.259258 80.326998"
   enable-background="new 0 0 100 100"
   xml:space="preserve"
   inkscape:version="0.48.4 r9939"
   sodipodi:docname="person.svg"
   inkscape:export-filename="/data/mapologo/projects/tinjaca/doc/informe1/static/person.png"
   inkscape:export-xdpi="75.628372"
   inkscape:export-ydpi="75.628372"><metadata
     id="metadata13"><rdf:RDF><cc:Work
         rdf:about=""><dc:format>image/svg+xml</dc:format><dc:type
           rdf:resource="http://purl.org/dc/dcmitype/StillImage" /><dc:title></dc:title></cc:Work></rdf:RDF></metadata><defs
     id="defs11" /><sodipodi:namedview
     pagecolor="#ffffff"
     bordercolor="#666666"
     borderopacity="1"
     objecttolerance="10"
     gridtolerance="10"
     guidetolerance="10"
     inkscape:pageopacity="0"
     inkscape:pageshadow="2"
     inkscape:window-width="1366"
     inkscape:window-height="744"
     id="namedview9"
     showgrid="false"
     inkscape:zoom="2.36"
     inkscape:cx="-41.184871"
     inkscape:cy="24.131111"
     inkscape:window-x="0"
     inkscape:window-y="0"
     inkscape:window-maximized="1"
     inkscape:current-layer="Layer_1"
     fit-margin-top="0"
     fit-margin-left="0"
     fit-margin-right="0"
     fit-margin-bottom="0" /><path
     d="m 42.518629,33.295999 c 6.525,-4.18 10.861,-11.489 10.861,-19.796 0,-12.958 -10.542,-23.5 -23.5,-23.5 -12.958,0 -23.5,10.542 -23.5,23.5 0,8.315 4.345,15.629 10.879,19.808 -10.594,5.343 -20.879,15.795 -20.879,24.942 0,10.9 23.253,12.077 33.25,12.077 9.997,0 33.25,-1.177 33.25,-12.077 0,-9.319 -9.934,-19.663 -20.361,-24.954 z m -12.639,-35.296 c 8.547,0 15.5,6.953 15.5,15.5 0,8.547 -6.953,15.5 -15.5,15.5 -8.547,0 -15.5,-6.953 -15.5,-15.5 0,-8.547 6.953,-15.5 15.5,-15.5 z m -0.25,64.327 c -15.301,0 -23.774,-2.777 -25.242,-4.391 0.411,-8.238 16.821,-20.186 25.492,-20.186 8.501,0 24.589,11.948 24.992,20.187 -1.467,1.613 -9.94,4.39 -25.242,4.39 z"
     id="path3"
     inkscape:connector-curvature="0" /></svg>