<?xml version="1.0" encoding="UTF-8" standalone="no"?>
<svg
   xmlns:dc="http://purl.org/dc/elements/1.1/"
   xmlns:cc="http://creativecommons.org/ns#"
   xmlns:rdf="http://www.w3.org/1999/02/22-rdf-syntax-ns#"
   xmlns:svg="http://www.w3.org/2000/svg"
   xmlns="http://www.w3.org/2000/svg"
   xmlns:sodipodi="http://sodipodi.sourceforge.net/DTD/sodipodi-0.dtd"
   xmlns:inkscape="http://www.inkscape.org/namespaces/inkscape"
   version="1.1"
   id="Capa_1"
   x="0px"
   y="0px"
   width="71.048164"
   height="70.956093"
   viewBox="5 -10 71.048164 95.790726"
   enable-background="new 0 0 100 100"
   xml:space="preserve"
   inkscape:version="0.48.4 r9939"
   sodipodi:docname="plus.svg"
   inkscape:export-filename="/data/mapologo/projects/tinjaca/doc/informe1/static/plus.png"
   inkscape:export-xdpi="55.809162"
   inkscape:export-ydpi="55.809162"><metadata
     id="metadata13"><rdf:RDF><cc:Work
         rdf:about=""><dc:format>image/svg+xml</dc:format><dc:type
           rdf:resource="http://purl.org/dc/dcmitype/StillImage" /><dc:title></dc:title></cc:Work></rdf:RDF></metadata><defs
     id="defs11" /><sodipodi:namedview
     pagecolor="#ffffff"
     bordercolor="#666666"
     borderopacity="1"
     objecttolerance="10"
     gridtolerance="10"
     guidetolerance="10"
     inkscape:pageopacity="0"
     inkscape:pageshadow="2"
     inkscape:window-width="1168"
     inkscape:window-height="480"
     id="namedview9"
     showgrid="false"
     fit-margin-top="0"
     fit-margin-left="0"
     fit-margin-right="0"
     fit-margin-bottom="0"
     inkscape:zoom="2.36"
     inkscape:cx="-14.120228"
     inkscape:cy="29.919177"
     inkscape:window-x="0"
     inkscape:window-y="0"
     inkscape:window-maximized="0"
     inkscape:current-layer="Capa_1" /><path
     d="m -5.000829,31.26352 c -5.885481,6.245368 -0.264662,17.60425 8.0433401,17.058951 9.0377089,0.0068 18.0754159,0.01828 27.1131259,0.0221 0.57554,10.216306 -1.039932,20.740299 0.662912,30.803339 2.864658,8.952966 16.930813,8.826018 19.600117,-0.198874 1.498671,-10.017909 0.103847,-20.447138 0.596621,-30.604465 10.199138,-0.605179 20.940259,1.091634 30.825436,-0.68501 C 90.698917,44.827035 90.72825,30.826524 81.730238,28.103636 71.682763,26.475843 61.18886,28.00357 50.99319,27.507015 50.517713,17.300857 52.005277,6.804135 50.374472,-3.2521291 47.639752,-12.285676 33.495226,-12.22016 30.774355,-3.2300291 29.238011,6.8392642 30.633791,17.303183 30.177734,27.507018 19.981361,28.000347 9.488035,26.478202 -0.55931378,28.103639 -2.290657,28.73908 -3.851909,29.811914 -5.000829,31.263523 z"
     id="path3"
     inkscape:connector-curvature="0" /></svg>