<?xml version="1.0" encoding="UTF-8" standalone="no"?>
<svg
   xmlns:dc="http://purl.org/dc/elements/1.1/"
   xmlns:cc="http://creativecommons.org/ns#"
   xmlns:rdf="http://www.w3.org/1999/02/22-rdf-syntax-ns#"
   xmlns:svg="http://www.w3.org/2000/svg"
   xmlns="http://www.w3.org/2000/svg"
   xmlns:sodipodi="http://sodipodi.sourceforge.net/DTD/sodipodi-0.dtd"
   xmlns:inkscape="http://www.inkscape.org/namespaces/inkscape"
   version="1.1"
   id="Capa_1"
   x="0px"
   y="0px"
   width="54.98"
   height="54.975998"
   viewBox="5 -10 54.979999 74.217598"
   enable-background="new 0 0 100 100"
   xml:space="preserve"
   inkscape:version="0.48.4 r9939"
   sodipodi:docname="plus.svg"
   inkscape:export-filename="/data/mapologo/projects/tinjaca/doc/informe1/static/plus.png"
   inkscape:export-xdpi="72"
   inkscape:export-ydpi="72"><metadata
     id="metadata13"><rdf:RDF><cc:Work
         rdf:about=""><dc:format>image/svg+xml</dc:format><dc:type
           rdf:resource="http://purl.org/dc/dcmitype/StillImage" /><dc:title></dc:title></cc:Work></rdf:RDF></metadata><defs
     id="defs11" /><sodipodi:namedview
     pagecolor="#ffffff"
     bordercolor="#666666"
     borderopacity="1"
     objecttolerance="10"
     gridtolerance="10"
     guidetolerance="10"
     inkscape:pageopacity="0"
     inkscape:pageshadow="2"
     inkscape:window-width="1366"
     inkscape:window-height="744"
     id="namedview9"
     showgrid="false"
     fit-margin-top="0"
     fit-margin-left="0"
     fit-margin-right="0"
     fit-margin-bottom="0"
     inkscape:zoom="2.36"
     inkscape:cx="-65.603279"
     inkscape:cy="29.919173"
     inkscape:window-x="0"
     inkscape:window-y="0"
     inkscape:window-maximized="1"
     inkscape:current-layer="Capa_1" /><path
     d="m -2.7390546,21.970521 c -4.5544286,4.838843 -0.2048064,13.63958 6.2242685,13.217088 6.9937521,0.0053 13.9875021,0.01416 20.9812551,0.01712 0.445377,7.915482 -0.804742,16.069356 0.512989,23.866089 2.216791,6.93666 13.101762,6.838302 15.167379,-0.154085 1.159734,-7.761766 0.08036,-15.842218 0.46169,-23.712004 7.892514,-0.468886 16.204437,0.845786 23.853994,-0.530738 6.854836,-2.19461 6.877536,-13.042053 -0.0855,-15.151716 C 56.601873,18.261082 48.481258,19.444748 40.591428,19.060022 40.223484,11.152403 41.374622,3.0196585 40.112638,-4.7718245 37.996399,-11.770918 27.050781,-11.720157 24.945259,-4.7547015 23.756372,3.0468765 24.836485,11.154205 24.483569,19.060025 16.593195,19.442251 8.4730262,18.262909 0.69797313,19.52228 c -1.3397848,0.492333 -2.54794603,1.323553 -3.43702773,2.448244 z"
     id="path3"
     inkscape:connector-curvature="0" /></svg>